<svg id="图层_1" data-name="图层 1" xmlns="http://www.w3.org/2000/svg" viewBox="0 0 196.44 54.33"><defs><style>.cls-1,.cls-2{fill:#c00;}.cls-1{fill-rule:evenodd;}</style></defs><path class="cls-1" d="M34.21,46.09a4,4,0,1,0,4,4A4,4,0,0,0,34.21,46.09ZM29.62,17.48H10.24a8.7,8.7,0,0,0-8.68,8.68V45.55a8.7,8.7,0,0,0,8.68,8.68H30a5.89,5.89,0,0,1-1.51-5.42H10.24A3.26,3.26,0,0,1,7,45.55V26.16a3.27,3.27,0,0,1,3.26-3.26H29.62a3.27,3.27,0,0,1,3.26,3.26V44.41a5.89,5.89,0,0,1,5.42,1.51V26.16A8.7,8.7,0,0,0,29.62,17.48ZM29.3,45.23V26.48H23.88v6.66H16V26.48H10.56V45.23H16V38.56h7.9v6.67Z" transform="translate(-1.56 -17.48)"/><polygon points="61.8 5.12 61.8 22.57 61.68 22.57 49.73 5.16 49.7 5.12 44.43 5.12 44.43 33.03 50.46 33.03 50.46 15.57 50.54 15.57 62.61 33.03 67.81 33.03 67.81 5.12 61.8 5.12"/><polygon points="102.58 22.54 108.65 12.05 102.54 12.05 98.67 19.24 94.9 12.05 88.75 12.05 94.75 22.54 88.53 33.03 94.68 33.03 98.67 25.93 102.7 32.99 102.73 33.03 108.82 33.03 102.58 22.54"/><path class="cls-2" d="M174.38,32.39h-5.93a5.82,5.82,0,0,0-.67-2.05,5.29,5.29,0,0,0-1.28-1.54,5.94,5.94,0,0,0-1.81-1,6.89,6.89,0,0,0-2.22-.34,6.7,6.7,0,0,0-3.75,1.06,6.89,6.89,0,0,0-2.48,3.09,12.25,12.25,0,0,0-.88,4.91,12.44,12.44,0,0,0,.89,5,6.4,6.4,0,0,0,6.18,4.08,7.62,7.62,0,0,0,2.19-.31,5.89,5.89,0,0,0,1.8-.92,5.1,5.1,0,0,0,1.3-1.47,5.84,5.84,0,0,0,.73-2l5.93,0a10.7,10.7,0,0,1-1.14,3.68,11.26,11.26,0,0,1-2.45,3.16A11.73,11.73,0,0,1,167.13,50a13.37,13.37,0,0,1-4.79.81,13,13,0,0,1-6.63-1.68,11.8,11.8,0,0,1-4.61-4.87,16.2,16.2,0,0,1-1.69-7.71,16.13,16.13,0,0,1,1.71-7.72A12,12,0,0,1,155.75,24a13.1,13.1,0,0,1,6.59-1.67,14.36,14.36,0,0,1,4.48.68,11.54,11.54,0,0,1,3.66,2,10.28,10.28,0,0,1,2.61,3.16A12,12,0,0,1,174.38,32.39Z" transform="translate(-1.56 -17.48)"/><path d="M123.29,45.86l0-.08h-.08l-.62.12a4.25,4.25,0,0,1-.8.07,2.7,2.7,0,0,1-1-.17,1.21,1.21,0,0,1-.64-.58,2.45,2.45,0,0,1-.24-1.2V34h3.92V29.53H119.9V22.47L114,25.88l-.05,0v3.63h-2.84V34H114V44.79a6.15,6.15,0,0,0,.87,3.43,5.17,5.17,0,0,0,2.47,2,8.54,8.54,0,0,0,3.23.58H121a10.63,10.63,0,0,0,1.92-.23c.54-.12.94-.23,1.23-.32l.07,0Z" transform="translate(-1.56 -17.48)"/><path d="M77.32,41.59H90.69V39.91a13.3,13.3,0,0,0-.75-4.67,9.33,9.33,0,0,0-2.1-3.33,8.79,8.79,0,0,0-3.15-2,11.35,11.35,0,0,0-3.87-.66,10.31,10.31,0,0,0-5.37,1.37,9.39,9.39,0,0,0-3.55,3.81,12.35,12.35,0,0,0-1.26,5.68,12.36,12.36,0,0,0,1.26,5.73,9,9,0,0,0,3.59,3.75,11.23,11.23,0,0,0,5.56,1.32,12.28,12.28,0,0,0,4.58-.8,8.55,8.55,0,0,0,3.26-2.24,7.52,7.52,0,0,0,1.68-3.4l0-.09L85.15,44h-.06l0,0a3.54,3.54,0,0,1-.85,1.3,3.68,3.68,0,0,1-1.34.8,5.56,5.56,0,0,1-1.73.26,4.86,4.86,0,0,1-2.47-.6,4,4,0,0,1-1.6-1.7,5.78,5.78,0,0,1-.56-2.64V37.92a4.5,4.5,0,0,1,.56-2,4.2,4.2,0,0,1,1.55-1.58,4.37,4.37,0,0,1,2.28-.59,4.26,4.26,0,0,1,2.17.54,3.87,3.87,0,0,1,1.47,1.48,4.39,4.39,0,0,1,.53,2.08H77.32Z" transform="translate(-1.56 -17.48)"/><path class="cls-2" d="M146.94,27.2a8.31,8.31,0,0,0-3.4-3.32,11.17,11.17,0,0,0-5.38-1.2H127.22V50.43h5.86V42.32h0V36.73h0V27.48h4a6.15,6.15,0,0,1,2.82.57,3.86,3.86,0,0,1,1.66,1.61,5.6,5.6,0,0,1,0,4.84,3.9,3.9,0,0,1-1.65,1.64,6,6,0,0,1-2.8.59h-3.18v4.7H138a11.58,11.58,0,0,0,5.45-1.18A8.24,8.24,0,0,0,146.92,37a9.8,9.8,0,0,0,1.19-4.88A9.92,9.92,0,0,0,146.94,27.2Z" transform="translate(-1.56 -17.48)"/><path class="cls-2" d="M197.11,39.23a6.34,6.34,0,0,0-2.26-2.31,6.22,6.22,0,0,0-3-.89v-.28a7.28,7.28,0,0,0,2.58-1.1,5.61,5.61,0,0,0,1.78-2,6.06,6.06,0,0,0,.65-2.86,6.65,6.65,0,0,0-1-3.69,6.77,6.77,0,0,0-3.08-2.51,12.48,12.48,0,0,0-5.1-.91H176.57V50.43h11.85a12.33,12.33,0,0,0,5.24-1,7.4,7.4,0,0,0,3.22-2.73A7.23,7.23,0,0,0,198,42.76,7,7,0,0,0,197.11,39.23Zm-6.32,5.46a5.51,5.51,0,0,1-3.57.94h-4.79V38.26h0v-4h0V27.42h4.46a4.46,4.46,0,0,1,3,.92A3.08,3.08,0,0,1,191,30.77a3.16,3.16,0,0,1-.55,1.88,3.59,3.59,0,0,1-1.49,1.22,5.22,5.22,0,0,1-2.15.42h-3.54v4h4.11a5.52,5.52,0,0,1,2.43.5,3.82,3.82,0,0,1,1.58,1.38,3.76,3.76,0,0,1,.56,2A3.12,3.12,0,0,1,190.79,44.69Z" transform="translate(-1.56 -17.48)"/><path d="M6.53,66.1a2,2,0,0,0,.92-.87,2.58,2.58,0,0,0,.31-1.3,2.78,2.78,0,0,0-.3-1.31,2.22,2.22,0,0,0-.93-.89A3.39,3.39,0,0,0,5,61.41H2.1v8H3.32v-3H5.05l1.64,3H8.07L6.29,66.2ZM3.32,62.45H4.85a2.24,2.24,0,0,1,1,.18,1.12,1.12,0,0,1,.54.51,1.67,1.67,0,0,1,.18.79,1.7,1.7,0,0,1-.17.78,1.15,1.15,0,0,1-.55.49,2.39,2.39,0,0,1-1,.17H3.32Z" transform="translate(-1.56 -17.48)"/><path d="M13.45,64a2.57,2.57,0,0,0-.86-.53,3,3,0,0,0-1-.17,2.74,2.74,0,0,0-1.47.4,2.71,2.71,0,0,0-1,1.11,4,4,0,0,0,0,3.27,2.47,2.47,0,0,0,1,1.08,2.91,2.91,0,0,0,1.54.38,3.14,3.14,0,0,0,1.18-.2,2.24,2.24,0,0,0,.86-.57A2,2,0,0,0,14.2,68l-1.12-.2a1.31,1.31,0,0,1-.3.48,1.47,1.47,0,0,1-.48.29,2,2,0,0,1-.61.09,1.77,1.77,0,0,1-.9-.22,1.46,1.46,0,0,1-.6-.65A2.25,2.25,0,0,1,10,66.8h4.29v-.42a3.88,3.88,0,0,0-.22-1.4A2.71,2.71,0,0,0,13.45,64ZM10,65.92a2,2,0,0,1,.19-.73,1.73,1.73,0,0,1,.57-.63,1.54,1.54,0,0,1,.86-.24,1.58,1.58,0,0,1,.8.2,1.46,1.46,0,0,1,.53.57,1.85,1.85,0,0,1,.19.83Z" transform="translate(-1.56 -17.48)"/><rect x="14.02" y="43.93" width="1.18" height="8.05"/><rect x="16.78" y="45.95" width="1.18" height="6.04"/><path d="M18.93,61.09a.78.78,0,0,0-.53.2.7.7,0,0,0,0,1,.78.78,0,0,0,.53.2.75.75,0,0,0,.52-.2.68.68,0,0,0,0-1A.75.75,0,0,0,18.93,61.09Z" transform="translate(-1.56 -17.48)"/><path d="M25,63.74a2.35,2.35,0,0,0-.77-.31,3.49,3.49,0,0,0-.76-.09,3.6,3.6,0,0,0-1,.16,2.23,2.23,0,0,0-.87.5,2.09,2.09,0,0,0-.58.89l1.11.25a1.33,1.33,0,0,1,.47-.58,1.45,1.45,0,0,1,.93-.26,1.17,1.17,0,0,1,.86.28,1.07,1.07,0,0,1,.29.8v0a.32.32,0,0,1-.15.3,1.44,1.44,0,0,1-.5.14l-.88.1q-.42.06-.84.15a2.85,2.85,0,0,0-.74.29,1.5,1.5,0,0,0-.54.52,1.7,1.7,0,0,0-.19.85,1.78,1.78,0,0,0,.27,1,1.7,1.7,0,0,0,.73.62,2.51,2.51,0,0,0,1,.22,2.24,2.24,0,0,0,.86-.15,2,2,0,0,0,.58-.36,1.67,1.67,0,0,0,.34-.45h.05v.82h1.15v-4a2.21,2.21,0,0,0-.23-1.07A1.72,1.72,0,0,0,25,63.74Zm-.37,3.54a1.29,1.29,0,0,1-.18.67,1.37,1.37,0,0,1-.53.51,1.68,1.68,0,0,1-.84.19,1.41,1.41,0,0,1-.82-.22.76.76,0,0,1-.32-.66.72.72,0,0,1,.17-.5,1,1,0,0,1,.45-.3,3.34,3.34,0,0,1,.62-.14l.36,0,.44-.07a2.09,2.09,0,0,0,.41-.09.54.54,0,0,0,.24-.11Z" transform="translate(-1.56 -17.48)"/><path d="M31.77,63.71a2.38,2.38,0,0,0-1.3-.37,2,2,0,0,0-.91.19A1.8,1.8,0,0,0,29,64a3.45,3.45,0,0,0-.3.43h-.07v-3H27.49v8h1.15v-.94h.09A4.07,4.07,0,0,0,29,69a1.73,1.73,0,0,0,.54.44,2,2,0,0,0,.9.18,2.3,2.3,0,0,0,1.3-.37,2.61,2.61,0,0,0,.9-1.08,4.54,4.54,0,0,0,0-3.35A2.52,2.52,0,0,0,31.77,63.71Zm-.14,3.82a1.8,1.8,0,0,1-.53.77,1.42,1.42,0,0,1-.88.28,1.36,1.36,0,0,1-.86-.27,1.68,1.68,0,0,1-.53-.75,3,3,0,0,1-.19-1.12,3.09,3.09,0,0,1,.18-1.1,1.61,1.61,0,0,1,.53-.73,1.53,1.53,0,0,1,1.75,0,1.62,1.62,0,0,1,.54.75,3,3,0,0,1,.18,1.07A2.86,2.86,0,0,1,31.63,67.53Z" transform="translate(-1.56 -17.48)"/><rect x="32.77" y="43.93" width="1.18" height="8.05"/><path d="M41.45,64a2.48,2.48,0,0,0-.86-.53,3,3,0,0,0-1-.17,2.74,2.74,0,0,0-1.47.4,2.78,2.78,0,0,0-1,1.11,4.1,4.1,0,0,0,0,3.27,2.55,2.55,0,0,0,1,1.08,2.87,2.87,0,0,0,1.53.38,3.14,3.14,0,0,0,1.18-.2,2.24,2.24,0,0,0,.86-.57A2,2,0,0,0,42.2,68l-1.12-.2a1.31,1.31,0,0,1-.3.48,1.37,1.37,0,0,1-.48.29,1.91,1.91,0,0,1-.61.09,1.77,1.77,0,0,1-.9-.22,1.58,1.58,0,0,1-.6-.65A2.25,2.25,0,0,1,38,66.8h4.29v-.42a3.88,3.88,0,0,0-.22-1.4A2.71,2.71,0,0,0,41.45,64ZM38,65.92a1.8,1.8,0,0,1,.2-.73,1.62,1.62,0,0,1,.56-.63,1.58,1.58,0,0,1,.87-.24,1.54,1.54,0,0,1,.79.2,1.46,1.46,0,0,1,.53.57,1.72,1.72,0,0,1,.19.83Z" transform="translate(-1.56 -17.48)"/><polygon points="49.19 50.19 49.09 50.19 46.53 43.93 45.05 43.93 45.05 51.98 46.21 51.98 46.21 46.15 46.28 46.15 48.66 51.97 49.62 51.97 51.99 46.16 52.07 46.16 52.07 51.98 53.22 51.98 53.22 43.93 51.75 43.93 49.19 50.19"/><path d="M60.48,67a1.6,1.6,0,0,1-.21.85,1.44,1.44,0,0,1-1.21.66,1.18,1.18,0,0,1-.89-.36,1.4,1.4,0,0,1-.34-1v-3.7H56.65v3.84a2.8,2.8,0,0,0,.26,1.26,1.73,1.73,0,0,0,.7.76,2.16,2.16,0,0,0,2.16-.06,1.84,1.84,0,0,0,.67-.8h.06v1h1.16v-6H60.48Z" transform="translate(-1.56 -17.48)"/><rect x="61.68" y="43.93" width="1.18" height="8.05"/><path d="M68.54,68.48l-.24,0a.86.86,0,0,1-.36-.07.5.5,0,0,1-.27-.23,1.09,1.09,0,0,1-.1-.51V64.37h1.24v-1H67.57V62H66.4v1.44h-.89v1h.89v3.56a1.6,1.6,0,0,0,.24.91,1.62,1.62,0,0,0,.65.54,2.11,2.11,0,0,0,.87.16,2.94,2.94,0,0,0,.47,0l.29-.08-.21-1Z" transform="translate(-1.56 -17.48)"/><path d="M70.7,61.09a.75.75,0,0,0-.52.2.68.68,0,0,0,0,1,.75.75,0,0,0,.52.2.78.78,0,0,0,.53-.2.7.7,0,0,0,0-1A.78.78,0,0,0,70.7,61.09Z" transform="translate(-1.56 -17.48)"/><rect x="68.55" y="45.95" width="1.18" height="6.04"/><rect x="71.31" y="43.93" width="1.18" height="8.05"/><path d="M79.55,63.74a2.44,2.44,0,0,0-.77-.31,3.51,3.51,0,0,0-.77-.09,3.59,3.59,0,0,0-1,.16,2.23,2.23,0,0,0-.87.5,2.09,2.09,0,0,0-.58.89l1.11.25a1.33,1.33,0,0,1,.47-.58A1.43,1.43,0,0,1,78,64.3a1.17,1.17,0,0,1,.86.28,1.07,1.07,0,0,1,.29.8v0a.32.32,0,0,1-.15.3,1.44,1.44,0,0,1-.5.14l-.88.1q-.42.06-.84.15a3.07,3.07,0,0,0-.75.29,1.55,1.55,0,0,0-.53.52,1.7,1.7,0,0,0-.19.85,1.78,1.78,0,0,0,.27,1,1.7,1.7,0,0,0,.73.62,2.51,2.51,0,0,0,1,.22,2.24,2.24,0,0,0,.86-.15,2,2,0,0,0,.58-.36,1.67,1.67,0,0,0,.34-.45h0v.82h1.15v-4a2.21,2.21,0,0,0-.23-1.07A1.72,1.72,0,0,0,79.55,63.74Zm-.37,3.54A1.29,1.29,0,0,1,79,68a1.37,1.37,0,0,1-.53.51,1.68,1.68,0,0,1-.84.19,1.41,1.41,0,0,1-.82-.22.76.76,0,0,1-.32-.66.72.72,0,0,1,.17-.5,1.08,1.08,0,0,1,.44-.3,3.66,3.66,0,0,1,.63-.14l.36,0,.44-.07a2.09,2.09,0,0,0,.41-.09.54.54,0,0,0,.24-.11Z" transform="translate(-1.56 -17.48)"/><path d="M84.08,68.11H84l-1.52-4.69H81.23l2.21,6.12-.18.48a1.28,1.28,0,0,1-.34.56.68.68,0,0,1-.44.19,2.12,2.12,0,0,1-.58-.07l-.28,1a1.38,1.38,0,0,0,.3.09,2.28,2.28,0,0,0,.48,0,2.14,2.14,0,0,0,.87-.17,1.83,1.83,0,0,0,.64-.5,2.55,2.55,0,0,0,.44-.8l2.52-6.92H85.61Z" transform="translate(-1.56 -17.48)"/><path d="M92.13,64a2.48,2.48,0,0,0-.86-.53,3,3,0,0,0-1-.17,2.59,2.59,0,0,0-2.44,1.51,4,4,0,0,0,0,3.27,2.47,2.47,0,0,0,1,1.08,2.9,2.9,0,0,0,1.53.38,3.07,3.07,0,0,0,1.18-.2,2.16,2.16,0,0,0,.86-.57,2,2,0,0,0,.48-.86l-1.11-.2a1.21,1.21,0,0,1-.31.48,1.33,1.33,0,0,1-.47.29,2,2,0,0,1-.61.09,1.72,1.72,0,0,1-.9-.22,1.46,1.46,0,0,1-.6-.65,2.1,2.1,0,0,1-.21-.94H93v-.42a4.11,4.11,0,0,0-.22-1.4A2.6,2.6,0,0,0,92.13,64Zm-3.46,1.88a1.65,1.65,0,0,1,.19-.73,1.57,1.57,0,0,1,.57-.63,1.52,1.52,0,0,1,.86-.24,1.61,1.61,0,0,1,.8.2,1.53,1.53,0,0,1,.53.57,1.84,1.84,0,0,1,.18.83Z" transform="translate(-1.56 -17.48)"/><path d="M97,63.33a1.69,1.69,0,0,0-1,.28,1.51,1.51,0,0,0-.59.77H95.4v-1H94.27v6h1.17V65.77a1.29,1.29,0,0,1,.19-.7,1.36,1.36,0,0,1,.5-.48,1.6,1.6,0,0,1,.73-.17,1.42,1.42,0,0,1,.31,0,.85.85,0,0,1,.24.09l.38-1a1.61,1.61,0,0,0-.35-.16A1.51,1.51,0,0,0,97,63.33Z" transform="translate(-1.56 -17.48)"/><path d="M106.13,61.75a3.16,3.16,0,0,0-1.56-.34H101.7v8h1.22V66.63h1.65a3.21,3.21,0,0,0,1.56-.34,2.19,2.19,0,0,0,.92-.94,2.78,2.78,0,0,0,.31-1.33,2.86,2.86,0,0,0-.3-1.33A2.28,2.28,0,0,0,106.13,61.75ZM106,64.83a1.31,1.31,0,0,1-.55.57,2,2,0,0,1-1,.2h-1.54V62.45h1.52a2.1,2.1,0,0,1,1,.2,1.29,1.29,0,0,1,.55.56,1.86,1.86,0,0,1,.17.81A1.92,1.92,0,0,1,106,64.83Z" transform="translate(-1.56 -17.48)"/><path d="M110.91,62.76a2.3,2.3,0,0,1,1.24-.35,2.19,2.19,0,0,1,.73.11,2.06,2.06,0,0,1,.63.31,2.08,2.08,0,0,1,.47.51,1.74,1.74,0,0,1,.26.69h1.23a3.4,3.4,0,0,0-.39-1.15,2.94,2.94,0,0,0-.74-.86,3.33,3.33,0,0,0-1-.54,3.87,3.87,0,0,0-1.2-.18,3.55,3.55,0,0,0-1.86.5A3.49,3.49,0,0,0,109,63.22a5.45,5.45,0,0,0,0,4.43,3.45,3.45,0,0,0,1.29,1.43,3.52,3.52,0,0,0,1.86.49,3.73,3.73,0,0,0,1.23-.19,3.27,3.27,0,0,0,1-.56,3.14,3.14,0,0,0,.72-.86,3.28,3.28,0,0,0,.38-1.09h-1.23a1.94,1.94,0,0,1-.27.68,1.87,1.87,0,0,1-.47.5,2,2,0,0,1-.62.31,2.52,2.52,0,0,1-.73.1,2.29,2.29,0,0,1-1.24-.34,2.36,2.36,0,0,1-.86-1,3.81,3.81,0,0,1-.32-1.66,3.74,3.74,0,0,1,.32-1.65A2.27,2.27,0,0,1,110.91,62.76Z" transform="translate(-1.56 -17.48)"/><path d="M121.84,65.56a1.72,1.72,0,0,0-.78-.26v-.08a2,2,0,0,0,.67-.3,1.48,1.48,0,0,0,.5-.55,1.8,1.8,0,0,0,.18-.84,2.07,2.07,0,0,0-.28-1.08,1.9,1.9,0,0,0-.84-.76,3.12,3.12,0,0,0-1.42-.28h-3v8H120a3.62,3.62,0,0,0,1.54-.28,2,2,0,0,0,.89-.78,2.12,2.12,0,0,0,.29-1.1,2.23,2.23,0,0,0-.25-1.07A1.88,1.88,0,0,0,121.84,65.56Zm-3.7-3.12h1.66a1.51,1.51,0,0,1,1.07.34,1.22,1.22,0,0,1,.16,1.51,1.37,1.37,0,0,1-.53.45,1.73,1.73,0,0,1-.73.15h-1.63Zm3,5.64a1.83,1.83,0,0,1-1.25.34h-1.75V65.84h1.8a1.74,1.74,0,0,1,.84.19,1.43,1.43,0,0,1,.55.51,1.29,1.29,0,0,1,.19.7A1.07,1.07,0,0,1,121.14,68.08Z" transform="translate(-1.56 -17.48)"/><polygon points="129.68 50.19 129.58 50.19 127.02 43.93 125.54 43.93 125.54 51.98 126.7 51.98 126.7 46.15 126.77 46.15 129.15 51.97 130.11 51.97 132.48 46.16 132.56 46.16 132.56 51.98 133.71 51.98 133.71 43.93 132.24 43.93 129.68 50.19"/><path d="M141.07,63.74a2.39,2.39,0,0,0-.76-.31,3.58,3.58,0,0,0-.77-.09,3.54,3.54,0,0,0-1,.16,2.34,2.34,0,0,0-.88.5,2.08,2.08,0,0,0-.57.89l1.1.25a1.41,1.41,0,0,1,.47-.58,1.47,1.47,0,0,1,.93-.26,1.17,1.17,0,0,1,.86.28,1,1,0,0,1,.29.8v0a.32.32,0,0,1-.15.3,1.38,1.38,0,0,1-.49.14l-.88.1q-.44.06-.84.15a2.79,2.79,0,0,0-.75.29,1.47,1.47,0,0,0-.53.52,1.7,1.7,0,0,0-.2.85,1.78,1.78,0,0,0,.27,1,1.7,1.7,0,0,0,.73.62,2.51,2.51,0,0,0,1,.22,2.24,2.24,0,0,0,.86-.15,1.92,1.92,0,0,0,.58-.36,1.72,1.72,0,0,0,.35-.45h0v.82h1.15v-4a2.1,2.1,0,0,0-.23-1.07A1.64,1.64,0,0,0,141.07,63.74Zm-.36,3.54a1.21,1.21,0,0,1-.19.67,1.31,1.31,0,0,1-.53.51,1.67,1.67,0,0,1-.83.19,1.37,1.37,0,0,1-.82-.22.75.75,0,0,1-.33-.66.72.72,0,0,1,.17-.5,1,1,0,0,1,.45-.3,3.54,3.54,0,0,1,.62-.14l.36,0,.45-.07a2,2,0,0,0,.4-.09.66.66,0,0,0,.25-.11Z" transform="translate(-1.56 -17.48)"/><path d="M147.51,63.6a2.21,2.21,0,0,0-1.08-.26,2,2,0,0,0-1.13.3,1.74,1.74,0,0,0-.65.77h-.07v-1h-1.13v6h1.17V65.88a1.61,1.61,0,0,1,.19-.82,1.23,1.23,0,0,1,.49-.52,1.49,1.49,0,0,1,.73-.18,1.24,1.24,0,0,1,.94.37,1.47,1.47,0,0,1,.34,1v3.7h1.18V65.62a2.75,2.75,0,0,0-.26-1.25A1.74,1.74,0,0,0,147.51,63.6Z" transform="translate(-1.56 -17.48)"/><path d="M153.89,67a1.51,1.51,0,0,1-.22.85,1.43,1.43,0,0,1-.54.5,1.46,1.46,0,0,1-.66.16,1.17,1.17,0,0,1-.89-.36,1.4,1.4,0,0,1-.34-1v-3.7h-1.18v3.84a2.8,2.8,0,0,0,.25,1.26,1.79,1.79,0,0,0,.7.76,2.18,2.18,0,0,0,2.17-.06,1.84,1.84,0,0,0,.67-.8h.06v1h1.16v-6h-1.18Z" transform="translate(-1.56 -17.48)"/><path d="M158.85,61a2.22,2.22,0,0,0-.89.19,1.56,1.56,0,0,0-.66.56,1.73,1.73,0,0,0-.25.94v.7h-.93v1h.93v5.09h1.18V64.37h1.31v-1h-1.31v-.54a.91.91,0,0,1,.19-.61.76.76,0,0,1,.61-.21,1.35,1.35,0,0,1,.31,0l.22.06.27-1-.37-.1A2.68,2.68,0,0,0,158.85,61Z" transform="translate(-1.56 -17.48)"/><path d="M164.42,63.74a2.39,2.39,0,0,0-.76-.31,3.41,3.41,0,0,0-1.81.07,2.34,2.34,0,0,0-.88.5,2.08,2.08,0,0,0-.57.89l1.1.25a1.41,1.41,0,0,1,.47-.58,1.48,1.48,0,0,1,.94-.26,1.15,1.15,0,0,1,.85.28,1,1,0,0,1,.29.8v0a.32.32,0,0,1-.15.3,1.38,1.38,0,0,1-.49.14l-.88.1q-.43.06-.84.15a2.79,2.79,0,0,0-.75.29,1.47,1.47,0,0,0-.53.52,1.7,1.7,0,0,0-.2.85,1.68,1.68,0,0,0,1,1.62,2.51,2.51,0,0,0,1,.22,2.21,2.21,0,0,0,.86-.15,2.11,2.11,0,0,0,.59-.36,1.9,1.9,0,0,0,.34-.45h0v.82h1.15v-4a2.1,2.1,0,0,0-.23-1.07A1.64,1.64,0,0,0,164.42,63.74Zm-.36,3.54a1.21,1.21,0,0,1-.19.67,1.31,1.31,0,0,1-.53.51,1.67,1.67,0,0,1-.83.19,1.39,1.39,0,0,1-.82-.22.75.75,0,0,1-.33-.66.72.72,0,0,1,.17-.5A1,1,0,0,1,162,67a3.54,3.54,0,0,1,.62-.14l.36,0,.45-.07a2.26,2.26,0,0,0,.41-.09.6.6,0,0,0,.24-.11Z" transform="translate(-1.56 -17.48)"/><path d="M168.49,64.59a1.47,1.47,0,0,1,.86-.25,1.32,1.32,0,0,1,.9.3,1.41,1.41,0,0,1,.43.73h1.14a2.13,2.13,0,0,0-.39-1.06,2.17,2.17,0,0,0-.87-.71,2.85,2.85,0,0,0-1.23-.26,2.75,2.75,0,0,0-1.48.4,2.68,2.68,0,0,0-1,1.1,4.08,4.08,0,0,0,0,3.24,2.69,2.69,0,0,0,1,1.11,2.83,2.83,0,0,0,1.51.39,2.74,2.74,0,0,0,1.25-.26,2.22,2.22,0,0,0,.85-.72,2.26,2.26,0,0,0,.38-1h-1.14a1.38,1.38,0,0,1-.26.56,1.47,1.47,0,0,1-.46.36,1.54,1.54,0,0,1-.61.12,1.51,1.51,0,0,1-.87-.26,1.83,1.83,0,0,1-.57-.75,3,3,0,0,1-.2-1.14,2.76,2.76,0,0,1,.21-1.12A1.68,1.68,0,0,1,168.49,64.59Z" transform="translate(-1.56 -17.48)"/><path d="M175.64,68.48l-.25,0a.86.86,0,0,1-.36-.07.48.48,0,0,1-.26-.23,1,1,0,0,1-.1-.51V64.37h1.23v-1h-1.23V62h-1.18v1.44h-.89v1h.89v3.56a1.53,1.53,0,0,0,.25.91,1.49,1.49,0,0,0,.65.54,2,2,0,0,0,.86.16,2.84,2.84,0,0,0,.47,0l.29-.08-.21-1Z" transform="translate(-1.56 -17.48)"/><path d="M181,67a1.51,1.51,0,0,1-.22.85,1.43,1.43,0,0,1-.54.5,1.46,1.46,0,0,1-.66.16,1.17,1.17,0,0,1-.89-.36,1.4,1.4,0,0,1-.34-1v-3.7H177.2v3.84a2.94,2.94,0,0,0,.25,1.26,1.79,1.79,0,0,0,.7.76,2.18,2.18,0,0,0,2.17-.06,1.84,1.84,0,0,0,.67-.8h.06v1h1.16v-6H181Z" transform="translate(-1.56 -17.48)"/><path d="M186.52,63.33a1.74,1.74,0,0,0-1,.28,1.54,1.54,0,0,0-.58.77h-.06v-1h-1.14v6H185V65.77a1.29,1.29,0,0,1,.19-.7,1.36,1.36,0,0,1,.5-.48,1.6,1.6,0,0,1,.73-.17,1.42,1.42,0,0,1,.31,0,.85.85,0,0,1,.24.09l.38-1a1.61,1.61,0,0,0-.35-.16A1.51,1.51,0,0,0,186.52,63.33Z" transform="translate(-1.56 -17.48)"/><path d="M192.35,64a2.67,2.67,0,0,0-.86-.53,3.09,3.09,0,0,0-1-.17,2.68,2.68,0,0,0-1.46.4,2.71,2.71,0,0,0-1,1.11,4,4,0,0,0,0,3.27,2.47,2.47,0,0,0,1,1.08,2.91,2.91,0,0,0,1.54.38,3.06,3.06,0,0,0,1.17-.2,2.2,2.2,0,0,0,.87-.57,2.07,2.07,0,0,0,.47-.86l-1.11-.2a1.21,1.21,0,0,1-.31.48,1.33,1.33,0,0,1-.47.29,2,2,0,0,1-.61.09,1.77,1.77,0,0,1-.9-.22,1.46,1.46,0,0,1-.6-.65,2.25,2.25,0,0,1-.21-.94h4.29v-.42A4.11,4.11,0,0,0,193,65,2.71,2.71,0,0,0,192.35,64Zm-3.47,1.88a1.79,1.79,0,0,1,.19-.73,1.65,1.65,0,0,1,.57-.63,1.52,1.52,0,0,1,.86-.24,1.58,1.58,0,0,1,.8.2,1.46,1.46,0,0,1,.53.57,1.85,1.85,0,0,1,.19.83Z" transform="translate(-1.56 -17.48)"/><path d="M197.65,63.39a1.51,1.51,0,0,0-.44-.06,1.71,1.71,0,0,0-1,.28,1.49,1.49,0,0,0-.58.77h-.07v-1h-1.13v6h1.17V65.77a1.29,1.29,0,0,1,.19-.7,1.31,1.31,0,0,1,.51-.48,1.54,1.54,0,0,1,.73-.17,1.39,1.39,0,0,1,.3,0,.85.85,0,0,1,.24.09l.38-1A1.42,1.42,0,0,0,197.65,63.39Z" transform="translate(-1.56 -17.48)"/></svg>